<svg width="330" height="337" viewBox="0 0 330 337" fill="none" xmlns="http://www.w3.org/2000/svg">
<path d="M285.983 230.443C282.161 229.107 279.198 227.236 277.092 224.832C274.997 222.431 273.715 219.732 273.246 216.734C272.788 213.74 273.103 210.69 274.189 207.584C275.283 204.455 276.948 201.864 279.183 199.812C281.425 197.775 284.113 196.47 287.248 195.898C290.389 195.342 293.86 195.728 297.659 197.056C301.48 198.393 304.44 200.256 306.539 202.645C308.645 205.049 309.929 207.743 310.39 210.726C310.859 213.724 310.547 216.787 309.453 219.916C308.366 223.022 306.706 225.601 304.47 227.654C302.247 229.71 299.562 231.022 296.416 231.59C293.282 232.162 289.804 231.779 285.983 230.443ZM289.335 220.856C291.391 221.575 293.219 221.907 294.818 221.852C296.425 221.812 297.777 221.388 298.875 220.58C299.979 219.788 300.801 218.621 301.341 217.079C301.88 215.537 301.966 214.106 301.6 212.787C301.241 211.483 300.448 210.309 299.22 209.265C298 208.236 296.362 207.362 294.306 206.643C292.25 205.924 290.419 205.585 288.812 205.625C287.213 205.68 285.861 206.104 284.756 206.896C283.658 207.704 282.84 208.878 282.301 210.42C281.762 211.962 281.671 213.385 282.03 214.69C282.397 216.009 283.19 217.183 284.41 218.212C285.638 219.256 287.28 220.137 289.335 220.856Z" fill="white" fill-opacity="0.54"/>
<path d="M246.501 252.241C248.601 250.156 250.812 248.787 253.133 248.134C255.462 247.49 257.768 247.519 260.05 248.222C262.341 248.933 264.471 250.28 266.439 252.263C268.407 254.245 269.734 256.38 270.421 258.668C271.115 260.964 271.128 263.27 270.458 265.586C269.797 267.91 268.416 270.115 266.316 272.2C264.418 274.085 262.433 275.371 260.363 276.058C258.293 276.762 256.255 276.867 254.248 276.375C252.249 275.89 250.412 274.812 248.735 273.141L255.187 266.736C256.288 267.66 257.35 268.141 258.371 268.179C259.392 268.233 260.289 267.876 261.061 267.109C261.666 266.508 262.02 265.806 262.124 265.003C262.235 264.208 262.067 263.333 261.618 262.377C261.178 261.43 260.433 260.427 259.382 259.368C258.331 258.31 257.33 257.553 256.377 257.098C255.433 256.651 254.559 256.476 253.755 256.573C252.959 256.679 252.259 257.032 251.654 257.633C251.142 258.142 250.805 258.71 250.644 259.337C250.491 259.972 250.522 260.642 250.737 261.346C250.952 262.067 251.368 262.788 251.984 263.51L245.533 269.915C243.865 268.184 242.78 266.31 242.276 264.291C241.782 262.28 241.885 260.242 242.587 258.177C243.281 256.121 244.586 254.142 246.501 252.241Z" fill="white" fill-opacity="0.54"/>
<path d="M205.973 279.531L213.541 297.998L216.959 296.597C218.098 296.13 218.828 295.524 219.149 294.779C219.47 294.033 219.512 293.402 219.275 292.885C219.068 292.317 218.579 291.904 217.807 291.644C217.04 291.396 216.054 291.518 214.849 292.012L208.409 294.651L206.174 289.197L212.614 286.557C215.078 285.548 217.356 285.017 219.446 284.967C221.536 284.916 223.317 285.299 224.79 286.115C226.263 286.932 227.318 288.131 227.953 289.712C228.664 291.416 228.815 293.126 228.405 294.842C227.984 296.563 227.042 298.164 225.577 299.647C224.101 301.135 222.153 302.374 219.733 303.366L207.903 308.214L197.562 282.978L205.973 279.531ZM221.483 273.175L220.131 289.541L211.784 292.961L213.137 276.595L221.483 273.175Z" fill="white" fill-opacity="0.54"/>
<path d="M178.597 307.444L178.653 314.759L152.234 314.963L152.177 307.648L160.842 307.581L160.688 287.625L169.92 287.553L170.074 307.51L178.597 307.444Z" fill="white" fill-opacity="0.54"/>
<path d="M107.555 293.297L110.278 286.508L123 291.611L120.277 298.4L107.555 293.297ZM113.372 306.267L123.524 280.955L132.094 284.392L121.941 309.704L113.372 306.267ZM98.5401 300.318L108.693 275.006L117.196 278.417L107.044 303.729L98.5401 300.318Z" fill="white" fill-opacity="0.54"/>
<path d="M74.8018 265.972L59.0008 271.102L52.4485 264.597L71.663 245.243L78.2154 251.748L67.7575 262.282L83.6085 257.102L90.1608 263.607L70.9463 282.961L64.3939 276.456L74.8018 265.972Z" fill="white" fill-opacity="0.54"/>
<path d="M59.0437 227.428L33.7694 237.675L30.0867 228.592L39.1038 224.936L38.4634 223.356L27.258 221.615L23.0416 211.216L39.0928 214.135L48.2892 200.903L52.559 211.434L46.7013 219.48L47.5286 221.52L55.361 218.345L59.0437 227.428Z" fill="white" fill-opacity="0.54"/>
<path d="M55.6903 155.461L40.0249 150.831L40.7496 148.379C40.4917 147.414 40.006 146.468 39.2924 145.542C38.5822 144.603 37.4502 143.652 35.8964 142.686C34.3459 141.71 32.1852 140.689 29.4144 139.623L14.9766 134.097L22.2637 109.441L49.8484 117.593L50.9354 113.915L66.6008 118.545L63.9033 127.672L55.5258 125.196L50.0101 143.858L58.3877 146.334L55.6903 155.461ZM43.9503 137.55L47.1509 126.72L27.1946 120.822L25.1212 127.837L32.1118 130.496C34.1989 131.286 35.9942 132.082 37.4975 132.884C38.9928 133.671 40.2653 134.461 41.315 135.253C42.3567 136.03 43.2352 136.795 43.9503 137.55Z" fill="white" fill-opacity="0.52"/>
<path d="M73.7134 78.7443L65.6514 62.5095L70.5191 57.5345L83.1087 83.6643L78.837 88.0301L52.6378 75.81L57.5054 70.835L73.7134 78.7443ZM56.1147 72.2564L75.6085 91.3298L69.1513 97.9292L49.6575 78.8559L56.1147 72.2564ZM86.7843 79.9077L67.2905 60.8343L73.6483 54.3363L93.1421 73.4097L86.7843 79.9077Z" fill="white" fill-opacity="0.52"/>
<path d="M116.172 46.8497L118.283 30.3716L126.963 27.2256L136.256 52.8662L127.576 56.0123L122.518 42.0568L120.431 58.6017L111.751 61.7477L102.458 36.107L111.138 32.961L116.172 46.8497Z" fill="white" fill-opacity="0.52"/>
<path d="M157.963 29.0631L158.329 21.7569L184.717 23.0817L184.35 30.3879L175.696 29.9534L174.695 49.8857L165.474 49.4227L166.475 29.4904L157.963 29.0631Z" fill="white" fill-opacity="0.52"/>
<path d="M198.595 63.6908L214.732 29.8404L223.515 34.0274L221.468 38.3228L221.66 38.4145C222.378 37.7339 223.212 37.194 224.163 36.7949C225.119 36.3851 226.156 36.1909 227.273 36.2122C228.396 36.2229 229.566 36.5186 230.784 37.0993C232.408 37.8735 233.746 39.0423 234.797 40.6056C235.859 42.174 236.407 44.1069 236.439 46.4042C236.483 48.7065 235.796 51.3429 234.38 54.3134C233.025 57.1556 231.459 59.3003 229.68 60.7474C227.913 62.1996 226.073 63.0337 224.16 63.2497C222.258 63.4708 220.431 63.1637 218.679 62.3283C217.525 61.7782 216.583 61.0996 215.853 60.2927C215.139 59.4802 214.616 58.5952 214.286 57.6378C213.971 56.6748 213.842 55.695 213.897 54.6986L213.769 54.6375L207.443 67.9084L198.595 63.6908ZM217.519 46.2755C216.949 47.4723 216.609 48.5826 216.502 49.6065C216.41 50.6248 216.537 51.5119 216.885 52.2678C217.249 53.0181 217.837 53.5868 218.649 53.9739C219.461 54.361 220.259 54.4598 221.045 54.2703C221.846 54.0752 222.602 53.6163 223.314 52.8934C224.042 52.1649 224.696 51.1917 225.276 49.9736C225.857 48.7555 226.199 47.6398 226.302 46.6266C226.42 45.6078 226.3 44.7311 225.942 43.9966C225.6 43.2565 225.023 42.6929 224.211 42.3057C223.399 41.9186 222.587 41.8201 221.775 42.0101C220.979 42.1945 220.212 42.6483 219.474 43.3717C218.751 44.0895 218.1 45.0574 217.519 46.2755Z" fill="white" fill-opacity="0.52"/>
<path d="M260.818 77.6918L276.95 73.7232L283.013 80.6868L262.443 98.5949L256.381 91.6313L267.576 81.8844L251.391 85.8997L245.328 78.9361L265.897 61.028L271.96 67.9916L260.818 77.6918Z" fill="white" fill-opacity="0.52"/>
<path d="M288.67 122.467L305.057 125.197L307.874 133.99L281.901 142.311L279.084 133.518L293.22 128.989L276.766 126.281L273.949 117.488L299.921 109.167L302.738 117.96L288.67 122.467ZM314.304 121.936L316.189 127.821C313.987 128.514 311.96 128.237 310.106 126.991C308.264 125.742 306.89 123.702 305.983 120.873C305.07 118.021 304.999 115.551 305.773 113.464C306.557 111.373 308.05 109.981 310.252 109.288L312.115 115.105C311.402 115.321 310.829 115.784 310.398 116.494C309.981 117.212 309.975 118.202 310.38 119.465C310.766 120.671 311.33 121.441 312.071 121.775C312.812 122.11 313.556 122.163 314.304 121.936Z" fill="white" fill-opacity="0.52"/>
<path d="M41.7053 182.685L33.065 178.043L41.4084 172.886C41.8786 172.595 42.0237 171.979 41.7331 171.509L39.6278 168.107C39.3372 167.637 38.7207 167.491 38.2505 167.782L29.9071 172.939L29.6103 163.14C29.5935 162.588 29.1321 162.154 28.5798 162.171L24.5791 162.292C24.0269 162.309 23.5925 162.77 23.6092 163.322L23.9061 173.121L15.2658 168.479C14.7789 168.217 14.1723 168.4 13.9107 168.886L12.0152 172.409C11.7536 172.896 11.9358 173.502 12.4227 173.764L21.0629 178.406L12.7195 183.563C12.2494 183.854 12.1042 184.47 12.3948 184.94L14.5001 188.342C14.7907 188.812 15.4072 188.957 15.8774 188.667L24.2208 183.51L24.5177 193.309C24.5344 193.861 24.9959 194.295 25.5481 194.278L29.5488 194.157C30.1011 194.14 30.5355 193.679 30.5187 193.127L30.2218 183.327L38.8621 187.97C39.349 188.231 39.9556 188.049 40.2173 187.562L42.1127 184.039C42.3744 183.553 42.1922 182.947 41.7053 182.685Z" fill="white" fill-opacity="0.52"/>
<path d="M320.577 174.237L311.937 169.594L320.28 164.437C320.751 164.147 320.896 163.531 320.605 163.06L318.5 159.658C318.209 159.189 317.593 159.043 317.123 159.334L308.779 164.49L308.482 154.692C308.466 154.139 308.004 153.706 307.452 153.722L303.451 153.844C302.899 153.86 302.465 154.321 302.481 154.874L302.778 164.673L294.138 160.03C293.651 159.769 293.044 159.952 292.783 160.438L290.887 163.961C290.626 164.447 290.808 165.054 291.295 165.315L299.935 169.958L291.592 175.115C291.121 175.405 290.976 176.022 291.267 176.491L293.372 179.894C293.663 180.363 294.279 180.508 294.749 180.218L303.093 175.061L303.39 184.86C303.406 185.412 303.868 185.846 304.42 185.829L308.421 185.708C308.973 185.691 309.408 185.231 309.391 184.678L309.094 174.879L317.734 179.521C318.221 179.783 318.828 179.601 319.089 179.114L320.985 175.59C321.246 175.104 321.064 174.498 320.577 174.237Z" fill="white" fill-opacity="0.52"/>
</svg>
