<svg width="334" height="337" viewBox="0 0 334 337" fill="none" xmlns="http://www.w3.org/2000/svg">
<path d="M289.983 230.443C286.161 229.107 283.198 227.236 281.092 224.832C278.997 222.431 277.715 219.732 277.246 216.734C276.788 213.74 277.103 210.69 278.189 207.584C279.283 204.455 280.948 201.864 283.183 199.812C285.425 197.775 288.113 196.47 291.248 195.898C294.389 195.342 297.86 195.728 301.659 197.056C305.48 198.393 308.44 200.256 310.539 202.645C312.645 205.049 313.929 207.743 314.39 210.726C314.859 213.724 314.547 216.787 313.453 219.916C312.366 223.022 310.706 225.601 308.47 227.654C306.247 229.71 303.562 231.022 300.416 231.59C297.282 232.162 293.804 231.779 289.983 230.443ZM293.335 220.856C295.391 221.575 297.219 221.907 298.818 221.852C300.425 221.812 301.777 221.388 302.875 220.58C303.979 219.788 304.801 218.621 305.341 217.079C305.88 215.537 305.966 214.106 305.6 212.787C305.241 211.483 304.448 210.309 303.22 209.265C302 208.236 300.362 207.362 298.306 206.643C296.25 205.924 294.419 205.585 292.812 205.625C291.213 205.68 289.861 206.104 288.756 206.896C287.658 207.704 286.84 208.878 286.301 210.42C285.762 211.962 285.671 213.385 286.03 214.69C286.397 216.009 287.19 217.183 288.41 218.212C289.638 219.256 291.28 220.137 293.335 220.856Z" fill="#EBE691"/>
<path d="M250.501 252.241C252.601 250.156 254.812 248.787 257.133 248.134C259.462 247.49 261.768 247.519 264.05 248.222C266.341 248.933 268.471 250.28 270.439 252.263C272.407 254.245 273.734 256.38 274.421 258.668C275.115 260.964 275.128 263.27 274.458 265.586C273.797 267.91 272.416 270.115 270.316 272.2C268.418 274.085 266.433 275.371 264.363 276.058C262.293 276.762 260.255 276.867 258.248 276.375C256.249 275.89 254.412 274.812 252.735 273.141L259.187 266.736C260.288 267.66 261.35 268.141 262.371 268.179C263.392 268.233 264.289 267.876 265.061 267.109C265.666 266.508 266.02 265.806 266.124 265.003C266.235 264.208 266.067 263.333 265.618 262.377C265.178 261.43 264.433 260.427 263.382 259.368C262.331 258.31 261.33 257.553 260.377 257.098C259.433 256.651 258.559 256.476 257.755 256.573C256.959 256.679 256.259 257.032 255.654 257.633C255.142 258.142 254.805 258.71 254.644 259.337C254.491 259.972 254.522 260.642 254.737 261.346C254.952 262.067 255.368 262.788 255.984 263.51L249.533 269.915C247.865 268.184 246.78 266.31 246.276 264.291C245.782 262.28 245.885 260.242 246.587 258.177C247.281 256.121 248.586 254.142 250.501 252.241Z" fill="#EBE691"/>
<path d="M209.973 279.531L217.541 297.998L220.959 296.597C222.098 296.13 222.828 295.524 223.149 294.779C223.47 294.033 223.512 293.402 223.275 292.885C223.068 292.317 222.579 291.904 221.807 291.644C221.04 291.396 220.054 291.518 218.849 292.012L212.409 294.651L210.174 289.197L216.614 286.557C219.078 285.548 221.356 285.017 223.446 284.967C225.536 284.916 227.317 285.299 228.79 286.115C230.263 286.932 231.318 288.131 231.953 289.712C232.664 291.416 232.815 293.126 232.405 294.842C231.984 296.563 231.042 298.164 229.577 299.647C228.101 301.135 226.153 302.374 223.733 303.366L211.903 308.214L201.562 282.978L209.973 279.531ZM225.483 273.175L224.131 289.541L215.784 292.961L217.137 276.595L225.483 273.175Z" fill="#EBE691"/>
<path d="M182.597 307.444L182.653 314.759L156.234 314.963L156.177 307.648L164.842 307.581L164.688 287.625L173.92 287.553L174.074 307.51L182.597 307.444Z" fill="#EBE691"/>
<path d="M111.555 293.297L114.278 286.508L127 291.611L124.277 298.4L111.555 293.297ZM117.372 306.267L127.524 280.955L136.094 284.392L125.941 309.704L117.372 306.267ZM102.54 300.318L112.693 275.006L121.196 278.417L111.044 303.729L102.54 300.318Z" fill="#EBE691"/>
<path d="M78.8018 265.972L63.0008 271.102L56.4485 264.597L75.663 245.243L82.2154 251.748L71.7575 262.282L87.6085 257.102L94.1608 263.607L74.9463 282.961L68.3939 276.456L78.8018 265.972Z" fill="#EBE691"/>
<path d="M63.0437 227.428L37.7694 237.675L34.0867 228.592L43.1038 224.936L42.4634 223.356L31.258 221.615L27.0416 211.216L43.0928 214.135L52.2892 200.903L56.559 211.434L50.7013 219.48L51.5286 221.52L59.361 218.345L63.0437 227.428Z" fill="#EBE691"/>
<path d="M59.6903 155.461L44.0249 150.831L44.7496 148.379C44.4917 147.414 44.006 146.468 43.2924 145.542C42.5822 144.603 41.4502 143.652 39.8964 142.686C38.3459 141.71 36.1852 140.689 33.4144 139.623L18.9766 134.097L26.2637 109.441L53.8484 117.593L54.9354 113.915L70.6008 118.545L67.9033 127.672L59.5258 125.196L54.0101 143.858L62.3877 146.334L59.6903 155.461ZM47.9503 137.55L51.1509 126.72L31.1946 120.822L29.1212 127.837L36.1118 130.496C38.1989 131.286 39.9942 132.082 41.4975 132.884C42.9928 133.671 44.2653 134.461 45.315 135.253C46.3567 136.03 47.2352 136.795 47.9503 137.55Z" fill="#32B5A4"/>
<path d="M77.7134 78.7443L69.6514 62.5095L74.5191 57.5345L87.1087 83.6643L82.837 88.0301L56.6378 75.81L61.5054 70.835L77.7134 78.7443ZM60.1147 72.2564L79.6085 91.3298L73.1513 97.9292L53.6575 78.8559L60.1147 72.2564ZM90.7843 79.9077L71.2905 60.8343L77.6483 54.3363L97.1421 73.4097L90.7843 79.9077Z" fill="#32B5A4"/>
<path d="M120.172 46.8497L122.283 30.3716L130.963 27.2256L140.256 52.8662L131.576 56.0123L126.518 42.0568L124.431 58.6017L115.751 61.7477L106.458 36.107L115.138 32.961L120.172 46.8497Z" fill="#32B5A4"/>
<path d="M161.963 29.0631L162.329 21.7569L188.717 23.0817L188.35 30.3879L179.696 29.9534L178.695 49.8857L169.474 49.4227L170.475 29.4904L161.963 29.0631Z" fill="#32B5A4"/>
<path d="M202.595 63.6908L218.732 29.8404L227.515 34.0274L225.468 38.3228L225.66 38.4145C226.378 37.7339 227.212 37.194 228.163 36.7949C229.119 36.3851 230.156 36.1909 231.273 36.2122C232.396 36.2229 233.566 36.5186 234.784 37.0993C236.408 37.8735 237.746 39.0423 238.797 40.6056C239.859 42.174 240.407 44.1069 240.439 46.4042C240.483 48.7065 239.796 51.3429 238.38 54.3134C237.025 57.1556 235.459 59.3003 233.68 60.7474C231.913 62.1996 230.073 63.0337 228.16 63.2497C226.258 63.4708 224.431 63.1637 222.679 62.3283C221.525 61.7782 220.583 61.0996 219.853 60.2927C219.139 59.4802 218.616 58.5952 218.286 57.6378C217.971 56.6748 217.842 55.695 217.897 54.6986L217.769 54.6375L211.443 67.9084L202.595 63.6908ZM221.519 46.2755C220.949 47.4723 220.609 48.5826 220.502 49.6065C220.41 50.6248 220.537 51.5119 220.885 52.2678C221.249 53.0181 221.837 53.5868 222.649 53.9739C223.461 54.361 224.259 54.4598 225.045 54.2703C225.846 54.0752 226.602 53.6163 227.314 52.8934C228.042 52.1649 228.696 51.1917 229.276 49.9736C229.857 48.7555 230.199 47.6398 230.302 46.6266C230.42 45.6078 230.3 44.7311 229.942 43.9966C229.6 43.2565 229.023 42.6929 228.211 42.3057C227.399 41.9186 226.587 41.8201 225.775 42.0101C224.979 42.1945 224.212 42.6483 223.474 43.3717C222.751 44.0895 222.1 45.0574 221.519 46.2755Z" fill="#32B5A4"/>
<path d="M264.818 77.6918L280.95 73.7232L287.013 80.6868L266.443 98.5949L260.381 91.6313L271.576 81.8844L255.391 85.8997L249.328 78.9361L269.897 61.028L275.96 67.9916L264.818 77.6918Z" fill="#32B5A4"/>
<path d="M292.67 122.467L309.057 125.197L311.874 133.99L285.901 142.311L283.084 133.518L297.22 128.989L280.766 126.281L277.949 117.488L303.921 109.167L306.738 117.96L292.67 122.467ZM318.304 121.936L320.189 127.821C317.987 128.514 315.96 128.237 314.106 126.991C312.264 125.742 310.89 123.702 309.983 120.873C309.07 118.021 308.999 115.551 309.773 113.464C310.557 111.373 312.05 109.981 314.252 109.288L316.115 115.105C315.402 115.321 314.829 115.784 314.398 116.494C313.981 117.212 313.975 118.202 314.38 119.465C314.766 120.671 315.33 121.441 316.071 121.775C316.812 122.11 317.556 122.163 318.304 121.936Z" fill="#32B5A4"/>
</svg>
