<?xml version="1.0" encoding="utf-8"?>
<!-- Generator: Adobe Illustrator 24.2.0, SVG Export Plug-In . SVG Version: 6.00 Build 0)  -->
<svg version="1.1" id="Слой_1" opacity="0.5" xmlns="http://www.w3.org/2000/svg" xmlns:xlink="http://www.w3.org/1999/xlink"
	 x="0px" y="0px" viewBox="0 0 309.2 293.2" style="enable-background:new 0 0 309.2 293.2;" xml:space="preserve">
<style type="text/css">
	.st0{fill:#FFFFFF;stroke:#000000;stroke-miterlimit:10;}
</style>
<path class="st0" d="M274.1,208.7c-3.8-1.3-6.8-3.2-8.9-5.6c-2.1-2.4-3.4-5.1-3.8-8.1c-0.5-3-0.1-6,0.9-9.1c1.1-3.1,2.8-5.7,5-7.8
	c2.2-2,4.9-3.3,8.1-3.9c3.1-0.6,6.6-0.2,10.4,1.2c3.8,1.3,6.8,3.2,8.9,5.6c2.1,2.4,3.4,5.1,3.9,8.1c0.5,3,0.2,6.1-0.9,9.2
	c-1.1,3.1-2.7,5.7-5,7.7c-2.2,2.1-4.9,3.4-8.1,3.9C281.4,210.4,277.9,210,274.1,208.7z M277.4,199.1c2.1,0.7,3.9,1.1,5.5,1
	c1.6,0,3-0.5,4.1-1.3c1.1-0.8,1.9-2,2.5-3.5c0.5-1.5,0.6-3,0.3-4.3c-0.4-1.3-1.2-2.5-2.4-3.5c-1.2-1-2.9-1.9-4.9-2.6
	c-2.1-0.7-3.9-1.1-5.5-1c-1.6,0.1-3,0.5-4.1,1.3c-1.1,0.8-1.9,2-2.5,3.5c-0.5,1.5-0.6,3-0.3,4.3c0.4,1.3,1.2,2.5,2.4,3.5
	C273.7,197.5,275.4,198.4,277.4,199.1z"/>
<path class="st0" d="M234.6,230.5c2.1-2.1,4.3-3.5,6.6-4.1c2.3-0.6,4.6-0.6,6.9,0.1c2.3,0.7,4.4,2.1,6.4,4c2,2,3.3,4.1,4,6.4
	c0.7,2.3,0.7,4.6,0,6.9c-0.7,2.3-2,4.5-4.1,6.6c-1.9,1.9-3.9,3.2-6,3.9c-2.1,0.7-4.1,0.8-6.1,0.3c-2-0.5-3.8-1.6-5.5-3.2l6.5-6.4
	c1.1,0.9,2.2,1.4,3.2,1.4c1,0.1,1.9-0.3,2.7-1.1c0.6-0.6,1-1.3,1.1-2.1c0.1-0.8-0.1-1.7-0.5-2.6c-0.4-0.9-1.2-2-2.2-3
	c-1.1-1.1-2.1-1.8-3-2.3c-0.9-0.4-1.8-0.6-2.6-0.5c-0.8,0.1-1.5,0.5-2.1,1.1c-0.5,0.5-0.8,1.1-1,1.7c-0.2,0.6-0.1,1.3,0.1,2
	c0.2,0.7,0.6,1.4,1.2,2.2l-6.5,6.4c-1.7-1.7-2.8-3.6-3.3-5.6c-0.5-2-0.4-4,0.3-6.1C231.4,234.4,232.7,232.4,234.6,230.5z"/>
<path class="st0" d="M194.1,257.8l7.6,18.5l3.4-1.4c1.1-0.5,1.9-1.1,2.2-1.8c0.3-0.7,0.4-1.4,0.1-1.9c-0.2-0.6-0.7-1-1.5-1.2
	c-0.8-0.2-1.8-0.1-3,0.4l-6.4,2.6l-2.2-5.5l6.4-2.6c2.5-1,4.7-1.5,6.8-1.6c2.1-0.1,3.9,0.3,5.3,1.1c1.5,0.8,2.5,2,3.2,3.6
	c0.7,1.7,0.9,3.4,0.5,5.1c-0.4,1.7-1.4,3.3-2.8,4.8c-1.5,1.5-3.4,2.7-5.8,3.7l-11.8,4.8l-10.3-25.2L194.1,257.8z M209.6,251.4
	l-1.4,16.4l-8.3,3.4l1.4-16.4L209.6,251.4z"/>
<path class="st0" d="M166.7,285.7l0.1,7.3l-26.4,0.2l-0.1-7.3l8.7-0.1l-0.2-20l9.2-0.1l0.2,20L166.7,285.7z"/>
<path class="st0" d="M95.7,271.5l2.7-6.8l12.7,5.1l-2.7,6.8L95.7,271.5z M101.5,284.5l10.2-25.3l8.6,3.4L110,287.9L101.5,284.5z
	 M86.6,278.6l10.2-25.3l8.5,3.4L95.1,282L86.6,278.6z"/>
<path class="st0" d="M62.9,244.2l-15.8,5.1l-6.6-6.5l19.2-19.4l6.6,6.5l-10.5,10.5l15.9-5.2l6.6,6.5l-19.2,19.4l-6.6-6.5L62.9,244.2
	z"/>
<path class="st0" d="M47.1,205.7l-25.3,10.2l-3.7-9.1l9-3.7l-0.6-1.6l-11.2-1.7l-4.2-10.4l16.1,2.9l9.2-13.2l4.3,10.5l-5.9,8l0.8,2
	l7.8-3.2L47.1,205.7z"/>
<path class="st0" d="M43.8,133.7l-15.7-4.6l0.7-2.5c-0.3-1-0.7-1.9-1.5-2.8c-0.7-0.9-1.8-1.9-3.4-2.9c-1.6-1-3.7-2-6.5-3.1
	l-14.4-5.5l7.3-24.7L38,95.8l1.1-3.7l15.7,4.6l-2.7,9.1l-8.4-2.5l-5.5,18.7l8.4,2.5L43.8,133.7z M32.1,115.8l3.2-10.8l-20-5.9
	l-2.1,7l7,2.7c2.1,0.8,3.9,1.6,5.4,2.4c1.5,0.8,2.8,1.6,3.8,2.4C30.5,114.3,31.3,115,32.1,115.8z"/>
<path class="st0" d="M61.8,57l-8.1-16.2l4.9-5l12.6,26.1l-4.3,4.4L40.7,54.1l4.9-5L61.8,57z M44.2,50.5l19.5,19.1l-6.5,6.6
	L37.8,57.1L44.2,50.5z M74.9,58.2L55.4,39.1l6.4-6.5l19.5,19.1L74.9,58.2z"/>
<path class="st0" d="M104.3,25.1l2.1-16.5l8.7-3.1l9.3,25.6l-8.7,3.1l-5.1-14l-2.1,16.5L99.9,40l-9.3-25.6l8.7-3.1L104.3,25.1z"/>
<path class="st0" d="M146.1,7.3l0.4-7.3l26.4,1.3l-0.4,7.3l-8.7-0.4l-1,19.9l-9.2-0.5l1-19.9L146.1,7.3z"/>
<path class="st0" d="M186.7,41.9l16.1-33.9l8.8,4.2l-2,4.3l0.2,0.1c0.7-0.7,1.6-1.2,2.5-1.6c1-0.4,2-0.6,3.1-0.6
	c1.1,0,2.3,0.3,3.5,0.9c1.6,0.8,3,1.9,4,3.5c1.1,1.6,1.6,3.5,1.6,5.8c0,2.3-0.6,4.9-2.1,7.9c-1.4,2.8-2.9,5-4.7,6.4
	c-1.8,1.5-3.6,2.3-5.5,2.5c-1.9,0.2-3.7-0.1-5.5-0.9c-1.2-0.6-2.1-1.2-2.8-2c-0.7-0.8-1.2-1.7-1.6-2.7c-0.3-1-0.4-1.9-0.4-2.9
	l-0.1-0.1l-6.3,13.3L186.7,41.9z M205.6,24.5c-0.6,1.2-0.9,2.3-1,3.3c-0.1,1,0,1.9,0.4,2.7c0.4,0.8,1,1.3,1.8,1.7s1.6,0.5,2.4,0.3
	c0.8-0.2,1.6-0.7,2.3-1.4c0.7-0.7,1.4-1.7,2-2.9c0.6-1.2,0.9-2.3,1-3.3c0.1-1,0-1.9-0.4-2.6c-0.3-0.7-0.9-1.3-1.7-1.7
	c-0.8-0.4-1.6-0.5-2.4-0.3c-0.8,0.2-1.6,0.6-2.3,1.4C206.9,22.3,206.2,23.3,205.6,24.5z"/>
<path class="st0" d="M248.9,55.9l16.1-4l6.1,7l-20.6,17.9l-6.1-7l11.2-9.7l-16.2,4l-6.1-7L254,39.3l6.1,7L248.9,55.9z"/>
<path class="st0" d="M276.8,100.7l16.4,2.7l2.8,8.8l-26,8.3l-2.8-8.8l14.1-4.5l-16.5-2.7l-2.8-8.8l26-8.3l2.8,8.8L276.8,100.7z
	 M302.4,100.2l1.9,5.9c-2.2,0.7-4.2,0.4-6.1-0.8c-1.8-1.2-3.2-3.3-4.1-6.1c-0.9-2.9-1-5.3-0.2-7.4c0.8-2.1,2.3-3.5,4.5-4.2l1.9,5.8
	c-0.7,0.2-1.3,0.7-1.7,1.4c-0.4,0.7-0.4,1.7,0,3c0.4,1.2,0.9,2,1.7,2.3C300.9,100.4,301.7,100.4,302.4,100.2z"/>
<path class="st0" d="M29.8,160.9l-8.6-4.6l8.3-5.2c0.5-0.3,0.6-0.9,0.3-1.4l-2.1-3.4c-0.3-0.5-0.9-0.6-1.4-0.3l-8.3,5.2l-0.3-9.8
	c0-0.6-0.5-1-1-1l-4,0.1c-0.6,0-1,0.5-1,1l0.3,9.8l-8.6-4.6c-0.5-0.3-1.1-0.1-1.4,0.4l-1.9,3.5c-0.3,0.5-0.1,1.1,0.4,1.4l8.6,4.6
	l-8.3,5.2c-0.5,0.3-0.6,0.9-0.3,1.4l2.1,3.4c0.3,0.5,0.9,0.6,1.4,0.3l8.3-5.2l0.3,9.8c0,0.6,0.5,1,1,1l4-0.1c0.6,0,1-0.5,1-1
	l-0.3-9.8l8.6,4.6c0.5,0.3,1.1,0.1,1.4-0.4l1.9-3.5C30.5,161.8,30.3,161.2,29.8,160.9z"/>
<path class="st0" d="M308.7,152.5l-8.6-4.6l8.3-5.2c0.5-0.3,0.6-0.9,0.3-1.4l-2.1-3.4c-0.3-0.5-0.9-0.6-1.4-0.3l-8.3,5.2l-0.3-9.8
	c0-0.6-0.5-1-1-1l-4,0.1c-0.6,0-1,0.5-1,1l0.3,9.8l-8.6-4.6c-0.5-0.3-1.1-0.1-1.4,0.4l-1.9,3.5c-0.3,0.5-0.1,1.1,0.4,1.4l8.6,4.6
	l-8.3,5.2c-0.5,0.3-0.6,0.9-0.3,1.4l2.1,3.4c0.3,0.5,0.9,0.6,1.4,0.3l8.3-5.2l0.3,9.8c0,0.6,0.5,1,1,1l4-0.1c0.6,0,1-0.5,1-1
	l-0.3-9.8l8.6,4.6c0.5,0.3,1.1,0.1,1.4-0.4l1.9-3.5C309.4,153.3,309.2,152.7,308.7,152.5z"/>
</svg>
