<svg width="287" height="287" viewBox="0 0 287 287" fill="none" xmlns="http://www.w3.org/2000/svg">
<path d="M143.5 0L151.61 14.6049L161.485 1.13155L167.701 16.6376L179.187 4.50832L183.409 20.671L196.326 10.0771L198.489 26.6416L212.632 17.75L212.702 34.455L227.847 27.4061L225.824 43.9882L241.733 38.893L237.646 55.0907L254.069 52.0297L247.984 67.5875L264.661 66.6089L256.675 81.2815L273.343 82.4006L263.581 95.9567L279.977 99.1561L268.593 111.382L284.458 116.611L271.632 127.313L286.717 134.489L272.65 143.5L286.717 152.511L271.632 159.687L284.458 170.389L268.593 175.618L279.977 187.844L263.581 191.043L273.343 204.6L256.675 205.719L264.661 220.391L247.984 219.412L254.069 234.97L237.646 231.909L241.733 248.107L225.824 243.011L227.847 259.594L212.702 252.545L212.632 269.25L198.489 260.358L196.326 276.923L183.409 266.329L179.187 282.492L167.701 270.362L161.485 285.868L151.61 272.395L143.5 287L135.391 272.395L125.515 285.868L119.299 270.362L107.813 282.492L103.591 266.329L90.6742 276.923L88.5106 260.358L74.3684 269.25L74.298 252.545L59.1529 259.594L61.1768 243.011L45.2675 248.107L49.3538 231.909L32.9314 234.97L39.0155 219.412L22.339 220.391L30.3251 205.719L13.6573 204.6L23.4194 191.043L7.02342 187.844L18.4075 175.618L2.54181 170.389L15.3684 159.687L0.283203 152.511L14.35 143.5L0.283203 134.489L15.3684 127.313L2.54181 116.611L18.4075 111.382L7.02342 99.1561L23.4194 95.9567L13.6573 82.4006L30.3251 81.2815L22.339 66.6089L39.0155 67.5875L32.9314 52.0297L49.3538 55.0907L45.2675 38.893L61.1768 43.9882L59.1529 27.4061L74.298 34.455L74.3684 17.75L88.5106 26.6416L90.6742 10.0771L103.591 20.671L107.813 4.50832L119.299 16.6376L125.515 1.13155L135.391 14.6049L143.5 0Z" fill="#C22D63"/>
</svg>
