<svg width="100" height="100" viewBox="0 0 100 100" fill="none" xmlns="http://www.w3.org/2000/svg">
<path fill-rule="evenodd" clip-rule="evenodd" d="M71.7704 31.1909C74.2278 31.8545 76.1592 33.7909 76.8121 36.2455C78 40.7 78 50 78 50C78 50 78 59.3 76.8121 63.7545C76.1502 66.2182 74.2187 68.1545 71.7704 68.8091C67.3272 70 49.5 70 49.5 70C49.5 70 31.6818 70 27.2296 68.8091C24.7722 68.1455 22.8408 66.2091 22.1879 63.7545C21 59.3 21 50 21 50C21 50 21 40.7 22.1879 36.2455C22.8498 33.7818 24.7813 31.8455 27.2296 31.1909C31.6818 30 49.5 30 49.5 30C49.5 30 67.3272 30 71.7704 31.1909ZM58.6131 50L43.8055 58.5727V41.4273L58.6131 50Z" fill="#FF3000"/>
</svg>
