<svg width="1093" height="504" viewBox="0 0 1093 504" fill="none" xmlns="http://www.w3.org/2000/svg">
<path fill-rule="evenodd" clip-rule="evenodd" d="M377.976 504C392.399 420.253 400 333.256 400 244C400 160.414 393.334 78.8096 380.642 0L0 0V504H377.976Z" fill="#774DD2"/>
<rect width="1093" height="504" fill="black" fill-opacity="0.83"/>
<path d="M329 184C329 151.967 354.967 126 387 126H1049V420C1049 452.033 1023.03 478 991 478H387C354.967 478 329 452.033 329 420V184Z" fill="#C22D63"/>
<rect x="417" y="26" width="443" height="75" rx="37.5" fill="#EBE691"/>
<path d="M404.425 415V364.091H424.808C428.554 364.091 431.677 364.646 434.18 365.756C436.682 366.867 438.563 368.408 439.822 370.38C441.082 372.335 441.712 374.589 441.712 377.141C441.712 379.13 441.314 380.878 440.518 382.386C439.723 383.878 438.629 385.104 437.237 386.065C435.862 387.01 434.287 387.681 432.514 388.079V388.576C434.453 388.659 436.268 389.206 437.958 390.217C439.665 391.228 441.049 392.644 442.109 394.467C443.17 396.274 443.7 398.428 443.7 400.93C443.7 403.632 443.029 406.043 441.687 408.164C440.361 410.269 438.397 411.934 435.795 413.161C433.194 414.387 429.987 415 426.175 415H404.425ZM415.188 406.2H423.963C426.963 406.2 429.15 405.629 430.526 404.485C431.901 403.325 432.589 401.784 432.589 399.862C432.589 398.453 432.249 397.21 431.57 396.133C430.89 395.056 429.921 394.21 428.661 393.597C427.418 392.984 425.935 392.678 424.212 392.678H415.188V406.2ZM415.188 385.394H423.168C424.643 385.394 425.952 385.137 427.095 384.624C428.255 384.093 429.167 383.348 429.83 382.386C430.509 381.425 430.849 380.273 430.849 378.931C430.849 377.092 430.194 375.608 428.885 374.482C427.592 373.355 425.753 372.791 423.366 372.791H415.188V385.394ZM450.704 415V364.091H485.008V372.965H461.468V385.096H483.243V393.97H461.468V406.126H485.107V415H450.704ZM493.565 415V364.091H513.651C517.512 364.091 520.801 364.828 523.519 366.303C526.237 367.762 528.308 369.792 529.734 372.393C531.175 374.979 531.896 377.962 531.896 381.342C531.896 384.723 531.167 387.706 529.709 390.291C528.25 392.876 526.138 394.89 523.37 396.332C520.619 397.773 517.288 398.494 513.377 398.494H500.575V389.869H511.637C513.709 389.869 515.415 389.512 516.758 388.8C518.117 388.071 519.128 387.068 519.79 385.792C520.47 384.499 520.81 383.016 520.81 381.342C520.81 379.652 520.47 378.177 519.79 376.918C519.128 375.642 518.117 374.656 516.758 373.96C515.399 373.247 513.675 372.891 511.587 372.891H504.329V415H493.565ZM583.806 381.914H572.918C572.719 380.505 572.313 379.254 571.7 378.161C571.087 377.05 570.3 376.106 569.339 375.327C568.377 374.548 567.267 373.951 566.008 373.537C564.765 373.123 563.414 372.915 561.956 372.915C559.321 372.915 557.026 373.57 555.07 374.879C553.115 376.172 551.598 378.061 550.521 380.547C549.444 383.016 548.905 386.016 548.905 389.545C548.905 393.175 549.444 396.224 550.521 398.693C551.615 401.162 553.14 403.027 555.095 404.286C557.05 405.546 559.313 406.175 561.881 406.175C563.323 406.175 564.657 405.985 565.883 405.604C567.126 405.223 568.228 404.667 569.189 403.938C570.151 403.192 570.946 402.289 571.576 401.229C572.222 400.168 572.67 398.958 572.918 397.599L583.806 397.649C583.524 399.986 582.82 402.24 581.693 404.411C580.583 406.565 579.083 408.496 577.194 410.202C575.321 411.893 573.084 413.235 570.482 414.229C567.897 415.207 564.972 415.696 561.707 415.696C557.166 415.696 553.106 414.669 549.527 412.614C545.964 410.559 543.147 407.584 541.075 403.69C539.02 399.795 537.993 395.08 537.993 389.545C537.993 383.994 539.037 379.271 541.125 375.376C543.213 371.482 546.047 368.516 549.626 366.477C553.206 364.422 557.233 363.395 561.707 363.395C564.657 363.395 567.391 363.809 569.91 364.638C572.446 365.466 574.691 366.676 576.647 368.267C578.602 369.841 580.193 371.772 581.42 374.059C582.662 376.346 583.458 378.964 583.806 381.914ZM589.585 372.965V364.091H631.396V372.965H615.811V415H605.171V372.965H589.585ZM640.836 415H629.302L646.877 364.091H660.748L678.297 415H666.763L654.011 375.724H653.613L640.836 415ZM640.115 394.989H667.36V403.391H640.115V394.989ZM681.665 415V406.349L683.107 406.225C684.963 406.076 686.463 405.372 687.607 404.112C688.75 402.836 689.603 400.806 690.167 398.022C690.747 395.221 691.12 391.46 691.286 386.737L692.131 364.091H726.683V415H716.218V372.717H702.124L701.328 390.44C701.063 396.141 700.384 400.798 699.29 404.411C698.213 408.023 696.489 410.691 694.119 412.415C691.766 414.138 688.543 415 684.45 415H681.665ZM742.642 382.908H754.773C758.816 382.908 762.296 383.563 765.213 384.872C768.146 386.165 770.408 387.996 771.999 390.366C773.59 392.736 774.377 395.528 774.361 398.743C774.377 401.941 773.59 404.767 771.999 407.219C770.408 409.656 768.146 411.561 765.213 412.937C762.296 414.312 758.816 415 754.773 415H735.756V364.091H746.495V406.349H754.773C756.712 406.349 758.344 406.001 759.67 405.305C760.996 404.593 761.998 403.656 762.678 402.496C763.374 401.32 763.713 400.036 763.697 398.643C763.713 396.622 762.951 394.915 761.41 393.523C759.885 392.114 757.673 391.41 754.773 391.41H742.642V382.908ZM850.967 406.673L850.271 426.982H840.502V415H836.35V406.673H850.967ZM784.969 364.091H795.484V406.349H810.1V364.091H820.566V406.349H835.008V364.091H845.473V415H784.969V364.091ZM857.511 364.091H868.249V396.108H868.672L890.671 364.091H900.092V415H889.329V382.958H888.956L866.832 415H857.511V364.091ZM939.784 415L923.428 393.299H919.749V415H908.985V364.091H919.749V384.425H921.911L938.815 364.091H952.213L932.352 387.706L953.133 415H939.784ZM967.321 415H955.787L973.361 364.091H987.232L1004.78 415H993.248L980.495 375.724H980.098L967.321 415ZM966.6 394.989H993.844V403.391H966.6V394.989Z" fill="white"/>
<path d="M476.557 59.875H471.58C471.489 59.2311 471.303 58.6591 471.023 58.1591C470.742 57.6515 470.383 57.2197 469.943 56.8636C469.504 56.5076 468.996 56.2348 468.42 56.0455C467.852 55.8561 467.235 55.7614 466.568 55.7614C465.364 55.7614 464.314 56.0606 463.42 56.6591C462.527 57.25 461.833 58.1136 461.341 59.25C460.848 60.3788 460.602 61.75 460.602 63.3636C460.602 65.0227 460.848 66.4167 461.341 67.5455C461.841 68.6742 462.538 69.5265 463.432 70.1023C464.326 70.678 465.36 70.9659 466.534 70.9659C467.193 70.9659 467.803 70.8788 468.364 70.7045C468.932 70.5303 469.436 70.2765 469.875 69.9432C470.314 69.6023 470.678 69.1894 470.966 68.7045C471.261 68.2197 471.466 67.6667 471.58 67.0455L476.557 67.0682C476.428 68.1364 476.106 69.1667 475.591 70.1591C475.083 71.1439 474.398 72.0265 473.534 72.8068C472.678 73.5795 471.655 74.1932 470.466 74.6477C469.284 75.0947 467.947 75.3182 466.455 75.3182C464.379 75.3182 462.523 74.8485 460.886 73.9091C459.258 72.9697 457.97 71.6098 457.023 69.8295C456.083 68.0492 455.614 65.8939 455.614 63.3636C455.614 60.8258 456.091 58.6667 457.045 56.8864C458 55.1061 459.295 53.75 460.932 52.8182C462.568 51.8788 464.409 51.4091 466.455 51.4091C467.803 51.4091 469.053 51.5985 470.205 51.9773C471.364 52.3561 472.39 52.9091 473.284 53.6364C474.178 54.3561 474.905 55.2386 475.466 56.2841C476.034 57.3295 476.398 58.5265 476.557 59.875ZM479.199 55.7841V51.7273H498.312V55.7841H491.188V75H486.324V55.7841H479.199ZM502.628 75H497.355L505.389 51.7273H511.73L519.753 75H514.48L508.651 57.0455H508.469L502.628 75ZM502.298 65.8523H514.753V69.6932H502.298V65.8523ZM522.554 75V51.7273H531.736C533.501 51.7273 535.005 52.0644 536.247 52.7386C537.49 53.4053 538.437 54.3333 539.088 55.5227C539.747 56.7045 540.077 58.0682 540.077 59.6136C540.077 61.1591 539.743 62.5227 539.077 63.7045C538.41 64.8864 537.444 65.8068 536.179 66.4659C534.921 67.125 533.399 67.4545 531.611 67.4545H525.759V63.5114H530.815C531.762 63.5114 532.543 63.3485 533.156 63.0227C533.777 62.6894 534.24 62.2311 534.543 61.6477C534.853 61.0568 535.009 60.3788 535.009 59.6136C535.009 58.8409 534.853 58.1667 534.543 57.5909C534.24 57.0076 533.777 56.5568 533.156 56.2386C532.535 55.9129 531.747 55.75 530.793 55.75H527.474V75H522.554ZM542.386 55.7841V51.7273H561.5V55.7841H554.375V75H549.511V55.7841H542.386ZM584.972 63.3636C584.972 65.9015 584.491 68.0606 583.528 69.8409C582.574 71.6212 581.271 72.9811 579.619 73.9205C577.975 74.8523 576.127 75.3182 574.074 75.3182C572.006 75.3182 570.15 74.8485 568.506 73.9091C566.862 72.9697 565.563 71.6098 564.608 69.8295C563.653 68.0492 563.176 65.8939 563.176 63.3636C563.176 60.8258 563.653 58.6667 564.608 56.8864C565.563 55.1061 566.862 53.75 568.506 52.8182C570.15 51.8788 572.006 51.4091 574.074 51.4091C576.127 51.4091 577.975 51.8788 579.619 52.8182C581.271 53.75 582.574 55.1061 583.528 56.8864C584.491 58.6667 584.972 60.8258 584.972 63.3636ZM579.983 63.3636C579.983 61.7197 579.737 60.3333 579.244 59.2045C578.759 58.0758 578.074 57.2197 577.188 56.6364C576.301 56.053 575.263 55.7614 574.074 55.7614C572.884 55.7614 571.847 56.053 570.96 56.6364C570.074 57.2197 569.384 58.0758 568.892 59.2045C568.407 60.3333 568.165 61.7197 568.165 63.3636C568.165 65.0076 568.407 66.3939 568.892 67.5227C569.384 68.6515 570.074 69.5076 570.96 70.0909C571.847 70.6742 572.884 70.9659 574.074 70.9659C575.263 70.9659 576.301 70.6742 577.188 70.0909C578.074 69.5076 578.759 68.6515 579.244 67.5227C579.737 66.3939 579.983 65.0076 579.983 63.3636ZM588.616 75V51.7273H597.935C599.647 51.7273 601.075 51.9811 602.219 52.4886C603.363 52.9962 604.223 53.7008 604.798 54.6023C605.374 55.4962 605.662 56.5265 605.662 57.6932C605.662 58.6023 605.48 59.4015 605.116 60.0909C604.753 60.7727 604.253 61.3333 603.616 61.7727C602.988 62.2045 602.268 62.5114 601.457 62.6932V62.9205C602.344 62.9583 603.173 63.2083 603.946 63.6705C604.726 64.1326 605.359 64.7803 605.844 65.6136C606.329 66.4394 606.571 67.4242 606.571 68.5682C606.571 69.803 606.264 70.9053 605.651 71.875C605.045 72.8371 604.147 73.5985 602.957 74.1591C601.768 74.7197 600.302 75 598.56 75H588.616ZM593.537 70.9773H597.548C598.92 70.9773 599.92 70.7159 600.548 70.1932C601.177 69.6629 601.491 68.9583 601.491 68.0795C601.491 67.4356 601.336 66.8674 601.026 66.375C600.715 65.8826 600.272 65.4962 599.696 65.2159C599.128 64.9356 598.45 64.7955 597.662 64.7955H593.537V70.9773ZM593.537 61.4659H597.185C597.859 61.4659 598.457 61.3485 598.98 61.1136C599.51 60.8712 599.927 60.5303 600.23 60.0909C600.541 59.6515 600.696 59.125 600.696 58.5114C600.696 57.6705 600.397 56.9924 599.798 56.4773C599.207 55.9621 598.366 55.7045 597.276 55.7045H593.537V61.4659ZM613.011 60.3295H618.557C620.405 60.3295 621.996 60.6288 623.33 61.2273C624.67 61.8182 625.705 62.6553 626.432 63.7386C627.159 64.822 627.519 66.0985 627.511 67.5682C627.519 69.0303 627.159 70.322 626.432 71.4432C625.705 72.5568 624.67 73.428 623.33 74.0568C621.996 74.6856 620.405 75 618.557 75H609.864V51.7273H614.773V71.0455H618.557C619.443 71.0455 620.189 70.8864 620.795 70.5682C621.402 70.2424 621.86 69.8144 622.17 69.2841C622.489 68.7462 622.644 68.1591 622.636 67.5227C622.644 66.5985 622.295 65.8182 621.591 65.1818C620.894 64.5379 619.883 64.2159 618.557 64.2159H613.011V60.3295ZM634.318 51.7273V75H629.409V51.7273H634.318ZM638.366 51.7273H643.276V66.3636H643.469L653.526 51.7273H657.832V75H652.912V60.3523H652.741L642.628 75H638.366V51.7273ZM650.366 45.6364H653.741C653.734 47.0152 653.223 48.125 652.207 48.9659C651.2 49.8068 649.836 50.2273 648.116 50.2273C646.389 50.2273 645.022 49.8068 644.014 48.9659C643.007 48.125 642.503 47.0152 642.503 45.6364H645.855C645.848 46.1591 646.014 46.6288 646.355 47.0455C646.704 47.4621 647.291 47.6705 648.116 47.6705C648.92 47.6705 649.495 47.4659 649.844 47.0568C650.192 46.6477 650.366 46.1742 650.366 45.6364ZM670.236 51.7273H675.043V71.0455H681.724V51.7273H686.509V71.0455H693.111V51.7273H697.895V75H670.236V51.7273ZM706.878 75H701.605L709.639 51.7273H715.98L724.003 75H718.73L712.901 57.0455H712.719L706.878 75ZM706.548 65.8523H719.003V69.6932H706.548V65.8523ZM726.804 75V51.7273H742.247V55.7841H731.724V60.3295H735.509C737.349 60.3295 738.937 60.6288 740.27 61.2273C741.611 61.8182 742.645 62.6553 743.372 63.7386C744.099 64.822 744.463 66.0985 744.463 67.5682C744.463 69.0303 744.099 70.322 743.372 71.4432C742.645 72.5568 741.611 73.428 740.27 74.0568C738.937 74.6856 737.349 75 735.509 75H726.804ZM731.724 71.0455H735.509C736.387 71.0455 737.13 70.8864 737.736 70.5682C738.342 70.2424 738.8 69.8144 739.111 69.2841C739.429 68.7462 739.588 68.1591 739.588 67.5227C739.588 66.5985 739.236 65.8182 738.531 65.1818C737.834 64.5379 736.827 64.2159 735.509 64.2159H731.724V71.0455ZM746.386 75V71.0455L747.045 70.9886C747.894 70.9205 748.58 70.5985 749.102 70.0227C749.625 69.4394 750.015 68.5114 750.273 67.2386C750.538 65.9583 750.708 64.2386 750.784 62.0795L751.17 51.7273H766.966V75H762.182V55.6705H755.739L755.375 63.7727C755.254 66.3788 754.943 68.5076 754.443 70.1591C753.951 71.8106 753.163 73.0303 752.08 73.8182C751.004 74.6061 749.53 75 747.659 75H746.386ZM792.409 63.3636C792.409 65.9015 791.928 68.0606 790.966 69.8409C790.011 71.6212 788.708 72.9811 787.057 73.9205C785.413 74.8523 783.564 75.3182 781.511 75.3182C779.443 75.3182 777.587 74.8485 775.943 73.9091C774.299 72.9697 773 71.6098 772.045 69.8295C771.091 68.0492 770.614 65.8939 770.614 63.3636C770.614 60.8258 771.091 58.6667 772.045 56.8864C773 55.1061 774.299 53.75 775.943 52.8182C777.587 51.8788 779.443 51.4091 781.511 51.4091C783.564 51.4091 785.413 51.8788 787.057 52.8182C788.708 53.75 790.011 55.1061 790.966 56.8864C791.928 58.6667 792.409 60.8258 792.409 63.3636ZM787.42 63.3636C787.42 61.7197 787.174 60.3333 786.682 59.2045C786.197 58.0758 785.511 57.2197 784.625 56.6364C783.739 56.053 782.701 55.7614 781.511 55.7614C780.322 55.7614 779.284 56.053 778.398 56.6364C777.511 57.2197 776.822 58.0758 776.33 59.2045C775.845 60.3333 775.602 61.7197 775.602 63.3636C775.602 65.0076 775.845 66.3939 776.33 67.5227C776.822 68.6515 777.511 69.5076 778.398 70.0909C779.284 70.6742 780.322 70.9659 781.511 70.9659C782.701 70.9659 783.739 70.6742 784.625 70.0909C785.511 69.5076 786.197 68.6515 786.682 67.5227C787.174 66.3939 787.42 65.0076 787.42 63.3636ZM796.054 75V51.7273H800.974V61.3295H810.963V51.7273H815.872V75H810.963V65.3864H800.974V75H796.054Z" fill="black" fill-opacity="0.83"/>
<path d="M403.539 180.747H435.154L468.546 262.214H469.967L503.359 180.747H534.975V302H510.109V223.079H509.102L477.723 301.408H460.79L429.411 222.783H428.405V302H403.539V180.747ZM556.097 302V180.747H637.8V201.883H581.733V230.776H633.597V251.912H581.733V280.864H638.037V302H556.097ZM663.096 180.747H688.021V219.823C688.021 224.48 688.831 228.23 690.449 231.072C692.067 233.874 694.574 235.907 697.968 237.17C701.402 238.393 705.803 239.005 711.171 239.005C713.065 239.005 715.295 238.946 717.861 238.828C720.427 238.67 723.071 238.453 725.795 238.176C728.558 237.9 731.163 237.565 733.61 237.17C736.057 236.775 738.09 236.321 739.708 235.808V256.056C738.05 256.609 735.978 257.102 733.491 257.537C731.044 257.931 728.459 258.287 725.735 258.602C723.012 258.879 720.367 259.096 717.802 259.254C715.236 259.411 713.026 259.49 711.171 259.49C701.422 259.49 692.936 258.109 685.712 255.346C678.489 252.544 672.904 248.222 668.957 242.38C665.05 236.538 663.096 229.019 663.096 219.823V180.747ZM735.268 180.747H760.311V302H735.268V180.747ZM781.048 201.883V180.747H880.632V201.883H843.51V302H818.17V201.883H781.048ZM903.115 302H875.644L917.502 180.747H950.539L992.338 302H964.867L934.494 208.455H933.547L903.115 302ZM901.398 254.339H966.288V274.351H901.398V254.339Z" fill="white"/>
<path d="M651.935 34.8617C651.333 36.3828 650.773 37.9122 650.215 39.4487" stroke="black" stroke-width="3" stroke-linecap="round"/>
<mask id="mask0_182_23" style="mask-type:luminance" maskUnits="userSpaceOnUse" x="34" y="104" width="279" height="279">
<path d="M173.417 106.5L132.342 147.575H77.575V202.342L36.5 243.417L77.575 284.492V339.258H132.342L173.417 380.333L214.492 339.258H269.258V284.492L310.333 243.417L269.258 202.342V147.575H214.492L173.417 106.5Z" fill="white" stroke="white" stroke-width="4" stroke-linejoin="round"/>
<path d="M173.417 284.492C184.31 284.492 194.758 280.164 202.461 272.461C210.164 264.758 214.492 254.31 214.492 243.417C214.492 232.523 210.164 222.075 202.461 214.372C194.758 206.669 184.31 202.342 173.417 202.342C162.523 202.342 152.075 206.669 144.372 214.372C136.669 222.075 132.342 232.523 132.342 243.417C132.342 254.31 136.669 264.758 144.372 272.461C152.075 280.164 162.523 284.492 173.417 284.492Z" fill="black" stroke="black" stroke-width="4" stroke-linejoin="round"/>
</mask>
<g mask="url(#mask0_182_23)">
<path d="M9.1167 79.1167H337.717V407.717H9.1167V79.1167Z" fill="#EBE691"/>
</g>
</svg>
